<?xml version="1.0" encoding="UTF-8"?>
<svg id="Layer_2" data-name="Layer 2" xmlns="http://www.w3.org/2000/svg" viewBox="0 0 1045.14 157.85">
  <defs>
    <style>
      .cls-1 {
        fill: none;
        stroke: #000;
        stroke-linecap: round;
        stroke-linejoin: round;
        stroke-width: 2px;
      }
    </style>
  </defs>
  <g id="Layer_1-2" data-name="Layer 1">
    <g>
      <path class="cls-1" d="m22.58,121.84c12.89-2.26,16.63-11.89,18.49-23,3.33-19.91,1.64-39.99,1.98-60,.17-10.01,1.48-19.97,1.06-30-.19-4.59-1.77-7-5.03-7s-4.99,2.4-5,7c-.01,14-.04,28,0,42,.04,12.51-1.04,24.98-1.23,37.5-.09,6.22-.91,12.75-4.23,18.53-1.55,2.69-3.5,4.94-6.55,4.84-3.27-.11-5.44-2-7.17-5.29-2.96-5.64-3.56-11.69-3.68-17.59-.4-20.33-.34-40.67-.05-61,.1-6.49,1.02-12.97.96-19.5-.03-3.45-1.12-5.9-4.58-6.42-2.86-.43-5.36,2.63-5.47,6.42-.28,10,.03,19.99-.42,30-.83,18.32-1.15,36.69.5,54.99.57,6.36,1.6,12.71,4.83,18.55,2.84,5.14,6.63,8.51,12.58,8.88,1.12.07,1.49,1.16,2.5,1.08"/>
      <path class="cls-1" d="m74.58,54.84c-4.74,1.66-5.57,6.26-6.33,10.03-1.87,9.35-2.88,18.9-2.09,28.46.37,4.54,1.54,9.02,2.44,13.5.44,2.22,1.65,4.35,3.98,4.37,2.13.02,3.41-1.7,4.64-3.78,2.45-4.13,3.52-8.67,3.69-13.09.39-10.5,1.68-20.96,1.18-31.49-.25-5.2-2.27-7.57-7.01-8"/>
      <path class="cls-1" d="m291.08,45.34c-9.2.8-13,7.78-14.78,15.05-3.76,15.33-4.79,30.92-.28,46.47.94,3.25,2.31,6.32,4.18,8.9,4.93,6.83,16.83,8.53,22.81-3.46,3.25-6.51,4.96-13.6,5.06-20.96.08-6.17.23-12.34-.04-18.5-.3-6.8-1.91-13.41-5.01-19.47-2.34-4.57-6.43-7.28-11.43-8.53"/>
      <path class="cls-1" d="m450.08,110.84c-.97-1.18-2.08-2.18-2.03-4,.38-15.84-.89-31.73,1.36-48,1.83,0,3.51.11,5.17-.02,3.06-.24,5.64-1.25,5.47-4.98-.16-3.46-2.48-4.21-5.47-4.02-1.68.1-3.37.02-5.1.02-1.08-6-.08-11.51.25-16.99.09-1.46.33-3.03.29-4.51-.07-2.85-1.12-5.45-4.44-5.42-3.25.03-4.59,2.22-4.52,5.42.16,7.04-.29,14.05-1.24,21.55-3.77-.26-8.18-.48-8.08,4.45.09,4.58,4.01,5.2,8.37,4.19-.22,8.49-.38,16.12-.8,23.82-.51,9.44-1.35,19.05.76,28.49,1.71,7.63,8.3,11.58,15,9,3.84-1.48,5.26-5.56,3.01-8.51-2.53-3.32-5.01-.32-7.51,0"/>
      <path class="cls-1" d="m560.58,54.84c.92,4.6,4.75,4.04,8.33,3.96.4,7.56-.57,14.55-.68,21.54-.15,10.15-1.15,20.38.84,30.5,1.5,7.63,7.41,11.46,14.01,9,4.29-1.6,5.97-4.22,4.5-7-1.99-3.75-2.89-3.86-7.99-1.01-2.7-1.66-2.54-4.35-2.51-6.99.14-15.17-.51-30.36.92-46,2.05,0,4.08-.12,6.08.03,3.33.24,4.72-2.59,4.72-4.53s-1.39-4.78-4.72-4.52c-1.83.14-3.68.02-5.5.02,0-5.67-.26-10.85.14-15.99.14-1.82.23-3.68.34-5.51.19-3.14-1.65-5.33-4.48-5.33s-4.49,2.19-4.53,5.34c-.07,5.67-.31,11.33-.47,17-.04,1.35,0,2.71,0,4.57-4.29-.33-8.34-.55-9.5,4.43"/>
      <path class="cls-1" d="m930.58,111.84c-1.97-1.53-2.51-3.74-2.46-6,.31-15.51.71-31.01,1.1-47,2.35,0,4.36-.02,6.37,0,3.07.05,4.51-1.44,4.51-4.51s-1.45-4.55-4.51-4.51c-2.01.03-4.01,0-6.67,0,1.52-7.48,1.01-14.5,1.23-21.5.1-3.14-1.01-5.31-4.06-5.39-3.22-.08-4.99,2.05-5,5.39,0,7,0,14.01,0,21.22-3.67.87-8.9-1.41-8.98,4.78-.07,5.35,4.71,3.74,8,5.17-.47,10.17.41,20.46-.84,30.85-.91,7.61-.75,15.48,1.81,22.98,2.24,6.56,7.44,9.06,13.5,6.5,3.73-1.58,5.77-4.98,4.5-7.5-1.52-3.01-3.32-3.12-8-.5"/>
      <path class="cls-1" d="m700.08,82.34c-4.19-8.51-6.43-17.75-9.93-26.53-.8-2.01.99-3.7,1.89-5.49,4.75-9.46,8.7-19.19,9.03-29.98.11-3.48-.78-6.84-2.06-9.97-2.19-5.36-5.3-9.35-13.44-8.58-4.47.43-8.24,4.04-10.57,9.52-4.1,9.61-.84,18.85,1.3,27.98.86,3.66,1.69,7.6,3.59,11.15.74,1.4.54,3.68-.62,6-5.71,11.36-10.25,23.28-12.06,35.92-1.06,7.37-.07,14.82,3.88,21.47,4.53,7.62,12.82,9.09,20.03,4.08,3.81-2.64,5.76-6.93,9.45-9.57"/>
      <path class="cls-1" d="m121.08,54.34c-3.91,2.41-5.22,6.15-6.08,10.49-2.57,13.04-3.03,26.01.06,39.02.11.47-.2,1.2.05,1.46,2.04,2.13,1.75,6.47,5.97,6.52,4.32.05,4.64-3.56,6.1-6.43,1.97-3.87,2.53-8.19,2.64-12.06.33-10.87,1.34-21.85-2.54-32.57-1.22-3.39-3.07-5.22-5.71-6.92"/>
      <path class="cls-1" d="m1030.58,54.84c-5.65,2.59-5.24,8.32-6.35,13.03-.75,3.19.15,6.73-1.77,10.2,4.73,1.38,8.94.43,13.09.87,1.71-6.66-.37-12.62-.7-18.6-.09-1.72-1.01-4.71-3.77-5.51"/>
      <path class="cls-1" d="m236.58,53.84c-2.85-.38-2.53-2.52-2.5-4.5.17-13.5.34-27,.5-40.5.01-1.17.04-2.33,0-3.5-.1-2.88-2.15-4.52-4.48-4.32-2.2.19-4.18,1.48-4.13,4.82.15,9.33-.28,18.66-.38,28-.21,19.33-.16,38.67-.6,58-.17,7.33-1.1,14.64-.92,22,.07,2.69.32,5.24,3.52,5.98,3.24.76,5.49-1.22,5.47-4.98-.07-16.18,1.64-32.31,1.06-48.5-.04-.98-.55-2.14.72-3.25h15.25c0,12.91.08,25.58-.05,38.25-.04,4-.79,8-.91,12-.13,4.46,1.6,6.48,4.95,6.5,4.69.03,4.43-3.5,4.46-6.5.23-23.17.4-46.33.52-69.5.07-12.5-.29-25.01.19-37.49.15-3.8-1.97-5.12-4.2-5.26-2.05-.13-4.13,1.42-4.09,4.75.23,15.66.1,31.33.1,47.5h-14"/>
      <path class="cls-1" d="m290.58,53.84c-6.45,3.92-6.47,10.94-7.26,17.03-.76,5.89-2.15,11.94-1.19,17.96.88,5.52.79,11.13,2.78,16.57,1.16,3.19,2.24,6.08,5.68,6.31,3.62.24,4.97-3.21,5.9-5.9,2.83-8.23,3.33-16.87,2.99-25.46-.26-6.53-.3-13.18-2.42-19.5-1.04-3.09-2.21-6.19-5.98-7.01"/>
      <path class="cls-1" d="m1025.08,87.34c4.33,0,8.67.08,13-.02,4.91-.12,6.01-1.21,5.98-5.98-.05-8.38.78-16.84-1.98-25-2.36-6.97-6.17-9.69-13-9.52-5.68.15-8.05,4.55-9.84,8.59-2.62,5.92-4.2,12.32-4.14,18.93.05,5.2-1.72,10.26-1.03,15.5.87,6.52.91,13.18,3.02,19.49,2.93,8.78,7.35,11.95,15.49,11.53,6.71-.35,11.24-8.74,10.56-14.03-.26-2.07-1.75-2.97-3.1-3.34-1.18-.33-2.97,0-3.94,1.36-.43.6-.88,1.29-.98,1.99-.43,3.02-1.61,5.61-5.03,5.4-3.33-.2-4.11-3.25-5.01-5.9-1.94-5.69-2.17-11.56-2.04-17.5.03-1.29,1.25-1.18,1.55-2"/>
      <path class="cls-1" d="m81.58,115.34c1,1,1.99,2.01,3,3,1.69,1.65,3.66,2.29,5.45.46,1.57-1.61,3.27-3.32,1.14-6.02-1.1-1.39-1.16-3.47-1.13-5.43.39-23,.21-46.02,1.28-68.99.43-9.18.3-18.35.81-27.51.2-3.53-1.44-5.83-4.55-5.83s-4.7,2.3-4.56,5.83c.5,12.03-.25,24.03-1.33,36.02-11.57-2.56-18.66,2.32-21.64,14.47-2.71,11.04-3.7,22.25-2.81,33.49.44,5.56,1.34,11.19,3.73,16.56,4.42,9.96,12.07,11.87,20.11,4.45"/>
      <path class="cls-1" d="m901.58,68.84c5.38-2.96,6.27-11.71,1.45-17.45-3.14-3.75-7.22-6.1-12.44-5.03-6.25,1.28-9.17,5.81-10.46,11.5-2.28,10.12,2.42,18.07,8.46,25.48,4.92,6.03,9.6,12.13,9.53,20.51-.01,1.48-.58,2.68-.99,4.02-.94,3.09-3.21,4.67-6.04,4.34-2.61-.3-4.04-2.59-3.99-5.36.03-1.77-1.47-3.1-1.08-5.01.53-2.61-1.74-3.66-3.47-3.84-1.99-.21-4.06,1.38-4.39,3.36-1.1,6.76,3.05,18.77,11.9,19.58,8.31.76,15.21-5,16.08-13.59.99-9.77-2.24-18-8.07-25.51-2.33-3-4.8-5.91-6.96-9.02-2.48-3.56-3.5-7.55-3.09-11.98.31-3.35,1.47-5.83,5.06-5.93,3.57-.1,4.04,2.47,4.06,5.43.02,2.17.49,4.36.98,6.49.34,1.45,2.18.57,2.96,1.51"/>
      <path class="cls-1" d="m166.08,49.34c0-6.5-.03-13,.01-19.5.02-2.96.04-5.89-4.01-5.98-4.05-.09-4.74,3.19-4.9,5.98-.34,5.81-.09,11.66-.12,17.49,0,.68.34,1.5-1.36,2.51-2.62.03-7.29-.67-7.49,4.49-.19,4.73,4.35,4.11,7.89,4.95-.38,11.21.4,22.36-.43,33.55-.5,6.67-.59,13.52,1.49,19.97,2.61,8.08,11.86,10.56,17.86,4.97,1.43-1.34,3.2-2.86,1.14-5.52-1.87-2.41-3.34-3.4-6.17-1.55-.6.39-1.44,1.16-2.66,1.15-3.92-2.2-2.46-6.49-2.56-9.54-.46-14.32-.21-28.67-.21-43.49,2.99,0,5,.1,7-.02,2.85-.17,5.45-1.15,5.42-4.48-.03-3.25-2.22-4.63-5.42-4.51-3.21.11-6.65-.65-9,2.51"/>
      <path class="cls-1" d="m416.58,45.34c-3.51.78-4.51,3.25-4.51,6.5.02,20.83.03,41.67-.01,62.5,0,2.54.37,4.4,3.52,4.55,2.49.12,4.42-.35,4.97-3.05.33-1.63.51-3.33.51-4.99.03-20-.03-40,.07-60,.01-3.07-.36-5.38-4.05-5.5"/>
      <path class="cls-1" d="m546.08,45.84c-3.97.69-5.04,3.14-5.07,7-.17,20.67.72,41.34-.42,62-.17,3.15,2.29,4.67,4.51,4.77,1.76.07,4.3-1.05,4.07-4.27-.21-2.97.37-5.99.4-8.99.2-17.67.29-35.33.58-53,.05-3.27-.5-5.88-3.56-7.5"/>
      <path class="cls-1" d="m952.08,139.84c-6.3,4.54-5.06,10.76,3,15,8.02,4.23,14.77,0,18.07-5.96,3.14-5.68,4.3-11.86,4.83-18.05,1.63-19.13.84-38.32,1.22-57.49.13-6.66,1.21-13.31.86-20-.06-1.16.34-2.3-.41-3.54-1.33-2.18-2.99-3.61-5.54-2.91-2.33.64-3.16,2.46-3.06,4.94.16,4.16-.15,8.34.08,12.5.61,10.87-.84,21.66-1.16,32.5-.13,4.42-1.5,8.88-4.42,12.47-2.26,2.78-5.77,2.05-6.33-1.49-.44-2.79-1.14-5.56-1.23-8.48-.5-15.53,1.14-30.99,1.11-46.5,0-2.96.04-5.82-4.02-6-3.07-.14-5.1,2.02-4.96,6,.51,13.69-1.01,27.33-1.05,41-.02,5.75.8,11.46,2.14,16.97,1.58,6.52,7.11,11.04,15.36,8,1.03-.38,1.91-1.15,3.1-1.88,1.15,8.95-.48,17.2-2.56,25.42-.77,3.02-2.94,5.05-5.55,5.29-2.34.21-4.82-1.36-5.48-4.29-.43-1.91-2.44-2.23-3.5-3.5"/>
      <path class="cls-1" d="m618.58,115.34c-1.04,5.14-.29,10.33-.49,15.5-.16,4.15-1.21,8.09-2.5,12-.9,2.75-3.13,4.72-5.52,4.74-1.89.02-4.51-.83-5.23-4.2-.49-2.28-2.72-4.97-6.29-2.59-2.96,1.97-2.87,4.14-1.53,7.06,2.6,5.67,7.31,8.78,13.05,8.77,6.18-.01,10.57-3.81,13.05-9.77,2.75-6.61,3.71-13.59,3.82-20.52.34-21.33.2-42.67.06-64-.03-3.84,1.94-7.4.31-11.59-1.07-2.76-2.11-4.1-4.74-3.84-2.79.27-3.56,2.27-3.54,4.94.08,12.33.27,24.67-.07,37-.15,5.73-.1,11.65-2.89,17.01-.24.46-.25,1.06-.53,1.48-1.18,1.83-2.47,3.94-4.97,3.43-2.69-.55-3.18-3.31-3.43-5.43-1.26-10.65-1.57-21.26-.26-32.01.9-7.39.2-14.98.16-22.48-.01-2.56-1.43-3.84-3.98-4.01-3.27-.22-4.28,2.03-4.96,4.52-.25.93-.04,1.99-.04,2.99,0,15.33.12,30.67-.08,46-.05,4.21.8,8.29,2.26,11.93,2.47,6.16,7.55,9.98,15.29,6.01.73-.37,1.35-.34,2.03-.44"/>
      <path class="cls-1" d="m121.08,45.34c-7.18.92-10.32,6.17-13.02,11.99-2.43,5.25-3.37,11.08-3.71,16.52-.77,12.41-1.39,25.1,3.78,36.96,2.6,5.96,6.5,10.6,13.95,10.02,6.97-.54,10.76-4.77,13.03-10.99,2.43-6.64,4.02-13.41,3.96-20.51-.07-8.71.36-17.4-1.89-26.03-2.31-8.82-5.68-16.29-15.6-18.47"/>
      <path class="cls-1" d="m372.08,48.84c-1.39-2.48-3.92-2.51-5.96-1.87-2.33.74-2.06,3.23-2.07,5.37-.12,19.5.03,39.01-.59,58.5-.41,13.01-.15,26-.38,39-.02,1.17-.43,2.6.09,3.44,1.08,1.76,2.37,4.1,4.89,3.46,2.49-.63,4.09-2.42,4.06-5.4-.09-9.17-.07-18.33,0-27.5.01-1.66-.69-3.43.77-5.03,3.01-.38,5.47,2.74,9.24,1.68,6.04-1.7,9.18-5.79,10.9-11.17,4.17-13.05,5.17-26.36,3.2-40-.6-4.19-.93-8.48-2.23-12.45-3.21-9.75-10.75-15.45-21.41-7.53"/>
      <path class="cls-1" d="m700.58,105.34c.6,5,3.36,9.14,5.57,13.46,1.13,2.22,3.4,2.07,5.42,1.02,2.39-1.25,2.67-3.07,1.55-5.5-1.97-4.27-3.43-8.79-5.63-12.93-1.5-2.82-1.44-5.58-.3-8,3-6.42,3.81-13.41,5.77-20.08.68-2.34.9-5.65-2.88-6.44-3.54-.74-4.85,1.34-5.54,4.47-1.18,5.37-2.62,10.68-3.96,16.01"/>
      <path class="cls-1" d="m856.08,54.84c-2.16.51-3.4,2.49-3.86,4.04-1.86,6.31-3.74,12.71-2.92,19.96,3.6,0,6.95-.15,10.28.07,1.47.1,2.39-.99,2.4-1.57.11-7.35.63-14.8-3.41-21.49-.41-.68-1.03-1.24-1.98-1.01"/>
      <path class="cls-1" d="m826.58,42.84c-.24,1.83-1.16,3.67.21,6,1.61,0,3.45.09,5.29-.02,3.27-.2,4.71,2.03,4.87,4.53.2,3-2.15,3.57-4.87,3.54-6-.07-6,.04-6,5.95,0,11.67-.02,23.33,0,35,.02,6.35-1.55,12.6-1.07,19,.21,2.79-1.68,4.17-4.43,3.97-3.03-.21-4.14-2.43-3.94-4.97,1.02-13,.32-26.01.35-39,0-5.22,1.06-10.31,1.13-15.5.03-2.57-.39-4.24-3.54-4.05-2.76.17-5.54-.73-5.36-3.95.17-3.14,2.54-4.73,5.87-4.54.83.05,1.8.39,3-.97,0-5.49-.54-11.56.14-17.48.78-6.73.03-13.75,3.79-20.06,3.96-6.65,7.98-8.82,14.06-6.44,7,2.74,8.47,9.29,8.11,14.99-.19,3.02-2.7,2.73-3.86,3.96-6.56-.98-2.04-9.87-8.66-11.03-4.26,3.02-4.09,7.99-4.54,12.57-.58,5.98.86,12.08-1.05,18"/>
      <path class="cls-1" d="m684.08,67.84c-6.35,11.93-10.24,24.45-6.87,37.97,1.81,7.27,5.62,7.41,10.89,3.06,3.52-2.91,5.38-6.97,7.98-10.53"/>
      <path class="cls-1" d="m686.58,44.34c-.14-4.64,3.11-8.14,4.15-12.46,1.2-5.02,1.48-9.99,1.31-15.03-.1-3.1-1.68-5.49-4.49-6.95-4.13,1.52-5.44,4.78-5.49,8.94-.09,7.83.11,15.58,4.52,22.5"/>
      <path class="cls-1" d="m794.08,120.34c3-1.14,4.03-3.42,4.02-6.5-.04-20.83-.07-41.67.03-62.5.02-3.38-1.74-5.33-4.55-5.33-2.82,0-4.52,2.19-4.51,5.33.03,21.5.08,43-.05,64.5-.02,3.48,2.53,3.82,4.57,5"/>
      <path class="cls-1" d="m996.58,3.84c-2.97,1.43-3.58,4.06-3.5,7,.75,25.85-1.46,51.66-1.02,77.5.11,6.66-.02,13.33.03,20,.05,6.2,2.8,9.98,7.96,12.06,3.36,1.35,5.69-.33,6.83-2.66.91-1.86.88-4.91-2.31-5.9-4.34-1.35-4.49-5.16-4.41-8.5.45-18.33.41-36.7,1.22-54.99.58-13.19.11-26.35.73-39.51.18-3.76-1.29-5.42-5.04-5"/>
      <path class="cls-1" d="m793.58,17.84c-4.9,3.04-6.39,6.08-5.01,10,1.09,3.12,2.86,5.55,6.5,4.92,2.79-.48,5.91-6.24,4.97-8.91-1.01-2.86-2.75-5.22-5.95-6.02"/>
      <path class="cls-1" d="m756.08,1.84c-3.65,1.27-4.11,4.12-4.03,7.5.64,27.84-1.5,55.65-1.08,83.5.1,6.81-1.08,13.64-.9,20.5.13,4.88,1.63,6.23,6.51,6.55,5.17.34,10.29,1.35,15.5.96.99-.07,2.13.29,2.97-.07,2.27-.96,5.08-1.42,5.06-4.94-.02-3.84-2.98-4.56-5.55-4.88-3.78-.46-7.71-.54-11.47,0-3.4.5-4.06-.68-4.05-3.63.05-11.51,1.12-22.98,1.12-34.5,0-21.33.51-42.67.97-64,.08-3.65-.73-6.17-4.56-7"/>
      <path class="cls-1" d="m485.08,82.84c-7.81,3.48-6.89,11.04-7.86,17.52-.38,2.54.5,5.44,1.43,7.95,1.7,4.58,4.36,4.83,7.43,1.03,2.71-3.36,4.05-7.18,4-11.5-.03-3-.31-6.04.07-8.99.48-3.76-1.04-5.53-4.58-6.01"/>
      <path class="cls-1" d="m684.58,64.34c-.67,3.14,1.62,5.37,2.57,7.97,3.31,9.07,6.93,18.03,10.43,27.03"/>
      <path class="cls-1" d="m417.58,16.84c-5.56,2.27-7.64,8.75-4,12.5,3.33,3.43,7.48,2.28,9-2.5,1.49-4.68.42-6.94-4.5-9.5"/>
      <path class="cls-1" d="m491.58,115.34c1.43,1.24,2.17,3.07,3.97,4.06,2.15,1.18,3.71.2,4.97-1.12,1.07-1.11,2.69-2.72,1.02-4.4-3.19-3.23-2.45-7.19-2.45-11.04-.02-12.33.13-24.67-.07-37-.08-5.08-.68-10.19-3.93-14.51-2.97-3.94-9.04-6.64-12.51-5.5-4.4,1.45-10.48,9.01-10.51,13-.02,1.91,1.23,3.36,2.57,3.85,1.25.46,2.98.55,4.53-.74,1.28-1.07,1.07-2.54,1.73-3.71,1.17-2.07,2.13-3.35,4.68-3.46,3.05-.13,4.24,2.61,4.29,4.07.2,5.16,1.93,10.28,1.11,14.82-.9,1.51-1.71,1.15-2.4,1.16-10.52.19-15.02,3.29-17.92,13.54-2.15,7.59-2.69,15.24.33,23.01,4.2,10.8,11.61,12.63,20.09,4.46"/>
      <path class="cls-1" d="m544.58,19.84c-3.42,1.35-5.03,4.21-4.33,7.46.53,2.45,2.01,5.25,5.33,5.52,2.9.24,4.84-2,5.29-4.03.59-2.66,1.2-5.94-2.22-8.07-1.27-.79-2.34-.78-3.57-.89"/>
      <path class="cls-1" d="m380.58,54.34c-6.27,2.65-6.83,8.62-7.36,14.01-.9,9.11-1.58,18.29-1.17,27.49.17,3.78.86,7.48,2.13,10.96.86,2.34,2.17,5.28,5.38,4.94,2.94-.31,4.65-2.54,5.53-5.4,1.71-5.55,2.91-11.22,2.92-17.01,0-8.34.88-16.74-.98-24.99-.88-3.92-.81-8.56-5.96-10.01"/>
      <path class="cls-1" d="m519.08,1.84c-3.65,1.27-4.06,4.12-4.04,7.5.1,14.83.54,29.69-.09,44.49-.73,17.34-.84,34.67-.88,52.01,0,4.73,1.13,9.06,4.54,12.47,2.02,2.02,4.88,2.46,7.44,1.89,1.81-.41,3.59-2,3.49-4.36-.07-1.7-.46-3.57-2.47-3.96-4.44-.85-3.96-4.39-4.53-7.53-.94-5.23.4-10.34.48-15.51.45-27,.67-54,1.11-81,.06-3.5-.87-5.64-4.56-6"/>
      <path class="cls-1" d="m331.08,45.84c-13.09,5.64-13.28,19.28-5.9,30.94,3.08,4.87,7.7,8.77,10.77,13.64,3.06,4.86,5.71,10.13,3.24,16.46-1.13,2.89-1.98,5-5.61,5.03-4.01.03-4.33-3.18-5.43-5.6-.59-1.31-.29-2.99-.6-4.46-.45-2.13-1.44-4.01-3.97-3.97-2.49.04-4.31,1.97-4.36,3.97-.15,5.99,1.22,11.81,5.92,15.93,4.01,3.51,8.85,4.26,13.94,2.08,5.96-2.55,8.21-7.57,8.98-13.51,1.19-9.13-1.85-16.94-7.46-24.02-3.47-4.39-7.25-8.54-10.1-13.44-1.81-3.12-1.63-6.35-1.33-9.53.27-2.86,2.01-4.7,5.4-4.56,3.45.14,4.63,1.9,4.51,5.05-.05,1.16,0,2.33-.01,3.5-.04,2.45.57,4.12,3.49,4.57,3.48.54,4.81-1.49,5.46-4.09,1.58-6.32-4.23-16.31-10.47-17.91-1.88-.48-3.98-.07-5.98-.07"/>
      <path class="cls-1" d="m856.08,45.84c-9.47,1.99-12.34,9.84-13.8,17.54-2.68,14.2-3.87,28.62-.21,42.96,1.39,5.43,3.36,10.51,8.52,13.47,3.74,2.14,7.8,2.16,11.44-.03,4.57-2.74,6.95-6.99,7.06-12.44.05-2.51-1.67-3.52-3.54-3.92-2.17-.47-3.76.94-4.41,2.94-.29.88-.7,1.7-.96,2.51-.7,2.17-1.9,3-4.11,3s-3.07-1.07-4.11-2.98c-2.46-4.51-3.71-12.96-2.36-21.77,4.63-.99,9.3.34,13.97.21,5.5-.15,6.64-1.11,6.46-6.5-.23-6.67.51-13.32-.82-20.03-1.51-7.58-4.56-13.23-12.63-14.97"/>
    </g>
  </g>
</svg>